<?xml version="1.0" encoding="utf-8"?>
<!-- Generator: Adobe Illustrator 27.8.0, SVG Export Plug-In . SVG Version: 6.00 Build 0)  -->
<svg version="1.1" xmlns="http://www.w3.org/2000/svg" xmlns:xlink="http://www.w3.org/1999/xlink" x="0px" y="0px"
	 viewBox="0 0 1024 1024" style="enable-background:new 0 0 1024 1024;" xml:space="preserve">
<style type="text/css">
	.st0{display:none;}
	.st1{display:inline;fill:#0B333E;}
	.st2{display:inline;}
	.st3{fill:#FFFFFF;}
	.st4{fill:#70A77A;}
	.st5{fill:#0B333E;}
	.st6{fill:#04333D;}
	.st7{fill:#EDF5F2;}
	.st8{fill:#72A87B;}
	.st9{fill:#043540;}
	.st10{fill:#01232B;}
	.st11{fill:#06323C;}
	.st12{fill:#294850;}
</style>
<g id="Ebene_2" class="st0">
	<path class="st1" d="M813.5,1009.5h-603c-110,0-200-90-200-200v-595c0-110,90-200,200-200h603c110,0,200,90,200,200v595
		C1013.5,919.5,923.5,1009.5,813.5,1009.5z"/>
	<g class="st2">
		<path class="st3" d="M224,461v379c0,41.2,33.8,75,75,75h426c41.2,0,75-33.8,75-75V461H224z"/>
		<path class="st4" d="M725,109H299c-41.2,0-75,33.8-75,75v109h576V184C800,142.8,766.2,109,725,109z M526,213c0,17-14,31-31,31H333
			c-17,0-31-14-31-31v0c0-17,14-31,31-31h162C512,182,526,195.9,526,213L526,213z"/>
		<g>
			<path class="st3" d="M224,334c0,41.2,33.8,75,75,75h426c41.2,0,75-33.8,75-75v-41H224V334z"/>
		</g>
		<g>
			<path class="st5" d="M380.8,561h-69c-14,0-25.5-11.5-25.5-25.5l0,0c0-14,11.5-25.5,25.5-25.5h69c14,0,25.5,11.5,25.5,25.5l0,0
				C406.3,549.5,394.9,561,380.8,561z"/>
			<circle class="st5" cx="346.3" cy="657" r="50"/>
			<circle class="st5" cx="346.3" cy="795" r="50"/>
		</g>
		<g>
			<path class="st5" d="M545.7,561h-69c-14,0-25.5-11.5-25.5-25.5l0,0c0-14,11.5-25.5,25.5-25.5h69c14,0,25.5,11.5,25.5,25.5l0,0
				C571.2,549.5,559.7,561,545.7,561z"/>
			<circle class="st5" cx="511.2" cy="657" r="50"/>
			<circle class="st5" cx="511.2" cy="795" r="50"/>
		</g>
		<g>
			<path class="st4" d="M710.5,561h-69c-14,0-25.5-11.5-25.5-25.5l0,0c0-14,11.5-25.5,25.5-25.5h69c14,0,25.5,11.5,25.5,25.5l0,0
				C736,549.5,724.5,561,710.5,561z"/>
			<path class="st4" d="M674,847L674,847c-22.6,0-41-18.4-41-41V664c0-22.5,18.4-41,41-41h0c22.5,0,41,18.4,41,41v142
				C715,828.6,696.6,847,674,847z"/>
		</g>
		<g>
			<path class="st3" d="M652.7,252.8c0,4.5,1.4,8.1,4.1,10.5c2.7,2.5,6.4,3.7,11.1,3.7c5.9,0,9.8-1.6,11.7-4.8
				c1.9-3.2,3.1-6.4,3.5-9.7h31.1c0,12.7-4.2,22.9-12.5,30.7c-4.1,4-8.9,7.1-14.6,9.4c-5.7,2.3-12.1,3.4-19.2,3.4
				c-9.8,0-18-1.9-24.8-5.7c-6.8-3.8-12-8.8-15.7-15.1c-2.2-3.8-3.8-8.1-4.6-13.1c-0.8-4.9-1.2-10.3-1.2-16.2v-47.5
				c0-5.9,0.4-11.3,1.2-16.2c0.8-4.9,2.3-9.3,4.6-13.1c3.7-6.3,8.9-11.3,15.7-15.1c6.8-3.8,15.1-5.7,24.8-5.7
				c7.1,0,13.6,1.1,19.4,3.4c5.8,2.3,10.7,5.4,14.8,9.4c8.1,8.5,12.2,19.6,12.2,33.3h-31.1c0-5.9-1.4-10.2-4.1-12.9
				c-2.7-2.7-6.5-4.1-11.1-4.1c-4.7,0-8.4,1.4-11.1,4.1c-2.7,2.7-4.1,6.9-4.1,12.4V252.8z"/>
		</g>
		<path class="st5" d="M661,775.5v-80c0-6.9,5.6-12.5,12.5-12.5h1c6.9,0,12.5,5.6,12.5,12.5v80c0,6.9-5.6,12.5-12.5,12.5h-1
			C666.6,788,661,782.4,661,775.5z"/>
	</g>
</g>
<g id="Ebene_3">
	<g>
		<path class="st6" d="M376.9,985c-16.6-5.9-33.5-11.2-49.9-17.7C152,897,49,768.2,16.7,582.9c-17.6-101-0.8-197.6,46.1-288
			c59.9-115.6,151.5-198.3,275-239.5c189-63.1,366-36.1,515,99.2c150.4,136.6,196.4,309.5,135,504
			C937.2,818.7,828,925.7,666.8,977.4c-7.5,2.4-14.9,5.1-22.4,7.7c-3.6,0.5-7.2,0.8-10.7,1.6c-38.6,8.7-77.6,13.8-117.3,14.3
			c-41,0.5-81.1-5.3-121.3-11.7c-2.8-0.5-5.5-1.1-8.3-1.6C383.5,986.8,380.2,985.9,376.9,985z M706.9,442.6
			c20.9-3.4,30.5-11.5,32.9-31.5c1.8-15.1,5.3-32.9-0.6-45.3c-5.2-10.9-7.1-19.2-4.7-29.8c5.6-24.3-1.2-31.3-24.8-25.5
			c-0.7-9.7-1.3-19.4-2-29c-1.6-23.2-15.3-40.8-37.5-46.2c-8.8-2.1-18.1-2.6-27.2-2.6c-91.6,0-183.3,0.9-274.9,0.1
			c-28.9-0.2-59.3,18-54.6,55.4c0.4,3,0,6.1,0.1,9.2c0.2,15.5,0.2,15.4,16.1,15.4c60.5,0.1,120.9-0.1,181.4,0.8
			c9.2,0.1,19,3.7,27.1,8.1c6.9,3.8,8.5,10.9,1.7,18.2c-8.7,9.4-17.9,15.2-31.7,14.9c-39.1-0.8-78.2-0.3-117.3-0.3
			c-22.6,0-45.2,0.3-67.8-0.2c-7.9-0.1-11.1,2.4-10.6,10.4c0.8,14,1,28,1.4,42c1.2,1.9,2.3,5.4,3.8,5.6c12.5,1.8,25.1,4.4,37.6,4.3
			c23-0.2,45.9-2.1,68.9-3.3c1.1,12.6-6.2,14.4-16.8,15c-9.7,0.5-23-2.3-23.6,14.3c-18.5,0-37.1-0.3-55.6,0.3
			c-4.7,0.1-9.2,3-13.8,4.7c-0.8,4.7-2.4,9.4-2.4,14.1c0,112.3-0.1,224.6,0.3,336.9c0.1,36.6,14.8,55.7,49.9,67.5
			c3.8,2,7.6,5.6,11.5,5.6c91.6,0.3,183.1,0.3,274.7,0c3.4,0,6.8-3.3,10.2-5c37.8-14.2,49.5-30.1,49.5-67.1
			c0-105.4,0-210.8-0.1-316.2c0-12.1-1.1-24.3-1.6-36.4C706.8,445.4,706.9,444,706.9,442.6z M314.3,196.7
			c32.4-7.9,65.3-6.5,98.2-6.5c79.5,0,159-0.3,238.4,0.2c13.9,0.1,27.7,3.2,41.6,4.9c3,0.4,6,0.5,13.2,1c-6-4.3-8.3-6.2-10.8-7.6
			c-47.3-27.2-98.2-43.3-152.6-46.8c-52.8-3.3-105,1.4-155.4,18.4c-25.8,8.7-52.5,16.1-72.5,36.4c-0.5,0.8-1,1.6-1.4,2.4
			C313.5,198.3,313.9,197.5,314.3,196.7z M751.6,763.9c150.5-147,130.9-383.1,0-500.2C751.6,430.6,751.6,596.8,751.6,763.9z
			 M269.5,761c0-166.8,0-331.5,0-497C130.8,389.7,129.8,626.4,269.5,761z"/>
		<path class="st7" d="M376.9,985c3.3,0.9,6.6,1.8,9.9,2.7C383.5,986.8,380.2,985.9,376.9,985z"/>
		<path class="st8" d="M751.6,763.9c0-167.1,0-333.3,0-500.2C882.5,380.8,902.2,616.9,751.6,763.9z"/>
		<path class="st4" d="M269.5,761c-139.6-134.6-138.7-371.3,0-497C269.5,429.4,269.5,594.1,269.5,761z"/>
		<path class="st4" d="M314.5,196.8c20.1-20.3,46.8-27.7,72.5-36.4c50.4-17.1,102.6-21.7,155.4-18.4c54.5,3.4,105.3,19.5,152.6,46.8
			c2.5,1.5,4.8,3.4,10.8,7.6c-7.2-0.5-10.2-0.6-13.2-1c-13.9-1.7-27.7-4.8-41.6-4.9c-79.5-0.5-159-0.2-238.4-0.2
			c-32.9,0-65.8-1.4-98.2,6.5L314.5,196.8z"/>
		<path class="st9" d="M710.1,312.2l-0.3-1.7c23.5-5.8,30.3,1.2,24.8,25.5c-2.4,10.6-0.5,18.9,4.7,29.8c5.9,12.4,2.5,30.2,0.6,45.3
			c-2.4,20.1-12.1,28.1-32.9,31.5c-107.6,0-215.2,0-322.8-0.1c0.6-16.6,13.9-13.8,23.6-14.3c10.6-0.6,17.9-2.4,16.8-15
			c91.7,0,183.4,0,275.2,0c2.7,3.3,5.4,6.6,8.1,9.8c2.2-3.9,5.9-7.6,6.2-11.6c1-12.4-1.9-25.3,9.2-35.4c2.2-2,1.6-8,1.1-12
			c-1.6-14.8-12.7-20.8-24.6-26.3c-2.9-1.3-7-5.5-6.5-7.2c1-3.4,4.3-7.6,7.5-8.4C706.5,320.7,711.4,319.8,710.1,312.2z"/>
		<path class="st10" d="M699.6,413.2c-91.7,0-183.4,0-275.2,0c-22.9,1.2-45.9,3.1-68.9,3.3c-12.5,0.1-25.1-2.4-37.6-4.3
			c-1.5-0.2-2.5-3.7-3.8-5.6c130.9,0.3,261.8,0.5,392.7,0.8C704.5,409.4,702,411.3,699.6,413.2z"/>
		<path class="st10" d="M384.1,442.5c107.6,0,215.2,0,322.8,0.1c-0.1,1.4-0.2,2.8-0.2,4.3c-130.7,0.2-261.3,0.4-392,0.6
			c4.6-1.6,9.2-4.5,13.8-4.7C347.1,442.2,365.6,442.5,384.1,442.5z"/>
		<path class="st10" d="M362.6,865.9c79.9,0.4,159.8,0.9,239.7,1.3c18.9,0.1,37.8-0.4,56.7-0.6c-3.4,1.8-6.8,5-10.2,5
			c-91.6,0.3-183.1,0.3-274.7,0C370.2,871.5,366.4,867.9,362.6,865.9z"/>
		<path class="st4" d="M314.3,196.7c-0.4,0.8-0.9,1.6-1.3,2.5c0.5-0.8,1-1.6,1.4-2.4C314.5,196.8,314.3,196.7,314.3,196.7z"/>
		<path class="st5" d="M553.8,754.4c0-15.9-0.4-31.7,0.1-47.6c0.5-16,5.8-22.7,21.8-23.6c22.5-1.3,45.1-1.3,67.6-0.5
			c13.8,0.5,20.6,8.6,20.7,22.8c0.3,31.1,0.3,62.2-0.4,93.3c-0.4,18.1-8.3,25.7-26,26c-19.5,0.4-39,0.3-58.5-0.3
			c-18.3-0.6-24.8-7.6-25.1-26.3c-0.3-14.6-0.1-29.3-0.1-43.9C554,754.4,553.9,754.4,553.8,754.4z M596.6,750.1c0.2,0,0.4,0,0.5,0
			c0,10.9,0,21.8,0,32.8c0,9.8,7.9,9.9,14.1,10.4c6.6,0.5,11.7-2.6,11.7-10.6c0-20.6,0.3-41.3,0.1-61.9
			c-0.1-10.4-7.9-10.4-15.5-10.6c-7.6-0.2-11.1,3-10.9,10.8C596.8,730.7,596.6,740.4,596.6,750.1z"/>
		<path class="st5" d="M608.1,509.5c11,0,21.9-0.4,32.9,0.1c14.2,0.6,23,8.4,23.9,20.3c1.1,13-8.3,26.9-21.3,27.6
			c-24.3,1.2-48.7,1.2-73-0.1c-12.9-0.7-19-10.9-18.4-24.9c0.6-13.9,7.4-21.4,21.1-22.7c6-0.6,12.2-0.2,18.3-0.2
			C597.1,509.5,602.6,509.5,608.1,509.5z"/>
		<path class="st5" d="M609.6,595.8c11,0,22-0.4,32.9,0.1c13.8,0.7,20.7,7.3,22,19.7c1.1,11-5.7,21.9-16.4,25.6
			c-3.4,1.2-7.1,2.2-10.7,2.2c-20.1,0.2-40.3,0.7-60.3-0.2c-17.4-0.7-27.2-13.7-24-29.5c2.3-11.2,9.5-17.6,21.8-18
			c11.6-0.4,23.2-0.1,34.7-0.1C609.6,595.7,609.6,595.7,609.6,595.8z"/>
		<path class="st5" d="M417,795c-0.3,15.6-12.6,28.5-27.5,28.6c-15.1,0.1-28.9-14.5-28.4-30.1c0.5-15.9,12.3-25.9,29.7-25.2
			C407,769,417.3,779.4,417,795z"/>
		<path class="st5" d="M417.3,709.6c-0.3,15.9-12.4,27-28.8,26.4c-15.8-0.6-27.5-12.7-27.5-28.5c-0.1-15.3,12.5-26.5,29.1-26
			C406.4,682.1,417.6,693.6,417.3,709.6z"/>
		<path class="st5" d="M389.2,508.5c16.9,0,28,10.6,27.8,26.7c-0.1,16.4-11.5,28-27.2,27.7c-17.1-0.3-29.6-12.2-29.6-28.1
			C360.3,519.7,372.6,508.5,389.2,508.5z"/>
		<path class="st5" d="M482.3,681.5c15.7-0.3,27.1,11.2,27.2,27.7c0.1,15.5-10.2,26.2-25.9,26.7c-15.7,0.5-28.5-11.1-29.1-26.3
			C453.9,695.3,467.3,681.7,482.3,681.5z"/>
		<path class="st5" d="M417,622c-0.4,16-11.9,26.7-28.7,26.4c-16.8-0.2-27.6-11.1-27.5-27.5c0.1-16.1,11.9-27,28.6-26.4
			C406.6,595,417.4,605.8,417,622z"/>
		<path class="st5" d="M482.4,768.4c16.8,0.2,27.7,11,27.4,27.1c-0.4,16-12,27.8-27.5,27.8c-14.9,0-27.8-12.9-27.9-27.9
			C454.3,779.8,466.3,768.2,482.4,768.4z"/>
		<path class="st5" d="M509.5,620.6c0.4,16.9-10.2,27.9-26.7,27.8c-16.6,0-28-11-28.1-27c-0.1-15.5,12-27.1,28.3-27.1
			C498.7,594.3,509.1,604.7,509.5,620.6z"/>
		<path class="st11" d="M509.6,535.7c-0.3,16.9-11.3,27.5-27.7,27c-15.3-0.5-27.9-13.7-27.1-28.6c0.8-15.1,14-26.6,29.7-26
			C499.9,508.8,509.9,519.7,509.6,535.7z"/>
		<path class="st6" d="M699.6,413.2c2.4-1.9,4.8-3.9,7.3-5.8c0.9-16.9,1.9-33.7,2.9-52.5c-21.7-0.7-41.4-1.8-61.1,2.1
			c-13.1,2.6-26.6,11.3-38.1-4.3c-1.2-1.6-8.7,1.3-13.1,2.5c-8.7,2.4-17.2,6.5-25.9,6.9c-4.4,0.2-9.2-5.9-13.8-9.1
			c4-3.1,7.5-7.5,12-9c5.6-1.9,13-3.7,17.9-1.6c19.9,8.7,39.4-2.9,59.1,0c3.3,0.5,8.9-1.9,10.2-4.6c1.5-3-0.7-7.8-1.3-11.8
			c-3.3,0.7-7.3,0.4-9.6,2.2c-10.6,8.7-19.3,5.2-31-3.7c7.9-5.2,14.2-9.2,20.2-13.4c2.1-1.5,3.6-3.9,5.4-5.8
			c-2.3-1.7-4.3-4.3-6.8-4.8c-6.2-1.3-12.7-1.6-19.2-2.4c5-20.4,8.1-24.2,16.5-21.1c23.1,8.3,27,16.6,17.6,42.4
			c21.3-2.5,41.2-4.9,61.2-7.3c1.3,7.6-3.6,8.5-9.5,10c-3.2,0.8-6.5,5.1-7.5,8.4c-0.5,1.7,3.7,5.8,6.5,7.2
			c11.9,5.5,23.1,11.5,24.6,26.3c0.4,4,1.1,10-1.1,12c-11.1,10.1-8.1,23-9.2,35.4c-0.3,4-4.1,7.7-6.2,11.6
			C705,419.8,702.3,416.5,699.6,413.2z"/>
		<path class="st12" d="M588.5,294.8c7.9,3.6,10.5,4.6,13,6c1.9,1.1,3.6,2.7,6.8,5.1c-5.8,2.2-10.1,3.8-16,6.1
			c4,1.7,6.9,2.9,9.7,4.1c-7,16.7-7,16.7-30.8,14.3c-0.4-3.9-0.8-8.1-1.2-12.2c-0.5-4.9,5.5-10.7-2.6-15c-1.1-0.6,0.7-10.6,3.7-13.7
			c5-5.2,11.7-9.9,18.4-11.6c3-0.8,7.9,6.2,12,9.7C598.2,289.4,594.8,291.3,588.5,294.8z"/>
		<path class="st4" d="M596.6,750.1c0-9.7,0.2-19.4-0.1-29.1c-0.2-7.8,3.3-11,10.9-10.8c7.6,0.2,15.4,0.2,15.5,10.6
			c0.2,20.6-0.1,41.2-0.1,61.9c0,8-5.1,11.1-11.7,10.6c-6.2-0.5-14.1-0.6-14.1-10.4c0-10.9,0-21.8,0-32.8
			C597,750.1,596.8,750.1,596.6,750.1z"/>
	</g>
</g>
</svg>
