<?xml version="1.0" standalone="no"?>
<!DOCTYPE svg PUBLIC "-//W3C//DTD SVG 20010904//EN"
 "http://www.w3.org/TR/2001/REC-SVG-20010904/DTD/svg10.dtd">
<svg version="1.0" xmlns="http://www.w3.org/2000/svg"
 width="700.000000pt" height="700.000000pt" viewBox="0 0 700.000000 700.000000"
 preserveAspectRatio="xMidYMid meet">
<metadata>
Created by potrace 1.14, written by Peter Selinger 2001-2017
</metadata>
<g transform="translate(0.000000,700.000000) scale(0.100000,-0.100000)"
fill="#000000" stroke="none">
<path d="M3275 6829 c-653 -66 -1271 -274 -1735 -582 -340 -226 -656 -542
-890 -892 -261 -391 -439 -806 -525 -1230 -66 -327 -72 -733 -14 -1080 165
-999 642 -1771 1409 -2282 289 -193 585 -335 970 -466 213 -73 574 -125 925
-134 595 -15 1126 103 1681 373 873 426 1468 1186 1723 2203 85 338 117 622
108 954 -11 412 -92 763 -262 1140 -307 680 -991 1361 -1710 1703 -294 140
-565 221 -915 275 -154 24 -606 35 -765 18z m618 -820 c161 -23 328 -64 464
-115 117 -43 337 -148 413 -198 52 -34 54 -35 25 -36 -16 0 -96 9 -177 21
-142 19 -180 20 -1215 16 -941 -3 -1078 -6 -1148 -20 -44 -9 -84 -17 -89 -17
-29 0 90 87 182 134 64 32 343 128 469 161 122 31 312 63 448 75 160 13 466 3
628 -21z m646 -610 c119 -21 205 -77 253 -165 33 -63 47 -134 50 -264 l3 -105
-198 -23 c-109 -13 -200 -22 -203 -20 -2 3 3 34 12 68 27 105 -3 160 -110 204
-78 32 -100 18 -129 -80 l-15 -52 66 -7 c36 -4 76 -14 89 -22 20 -13 21 -17 8
-36 -8 -12 -46 -42 -85 -67 -38 -25 -70 -48 -70 -52 0 -10 101 -58 122 -58 10
0 41 12 68 26 65 34 84 30 88 -20 2 -21 -2 -44 -8 -50 -6 -6 -55 -14 -108 -18
-53 -3 -140 -9 -192 -13 -73 -6 -107 -4 -146 8 -40 12 -63 13 -95 6 -43 -10
-119 -54 -119 -69 0 -5 14 -20 31 -34 40 -34 79 -33 196 4 51 17 100 30 109
30 9 0 32 -13 51 -30 41 -37 84 -39 193 -9 81 22 345 38 414 25 l38 -7 -6
-132 c-4 -73 -9 -152 -12 -177 l-5 -45 -1337 3 c-1051 2 -1338 5 -1344 15 -4
6 -8 83 -8 169 0 147 1 158 20 168 13 7 240 10 701 10 l682 -1 53 26 c61 30
124 97 124 132 0 34 -37 66 -106 94 l-59 24 -692 5 c-549 4 -695 8 -705 18 -9
9 -13 51 -13 150 0 130 1 140 28 194 29 58 81 110 144 142 89 45 83 45 1147
45 708 1 1029 -2 1075 -10z m-2699 -1906 l-1 -1698 -60 65 c-376 409 -587 879
-640 1430 -14 151 -7 443 16 585 61 392 210 751 433 1045 50 65 238 270 248
270 2 0 4 -764 4 -1697z m3447 1554 c282 -306 481 -743 550 -1206 22 -147 24
-523 5 -656 -79 -527 -277 -946 -629 -1331 l-73 -79 0 1709 0 1708 40 -36 c22
-20 70 -69 107 -109z m-452 -1209 c3 -57 5 -632 3 -1278 l-3 -1175 -24 -60
c-33 -82 -112 -159 -216 -210 l-80 -40 -1025 3 -1025 3 -80 38 c-109 52 -157
97 -200 184 -28 58 -37 91 -45 172 -13 121 -9 2421 4 2448 8 16 82 17 1346 17
l1338 0 7 -102z"/>
<path d="M3984 5080 c-22 -11 -53 -33 -68 -49 -31 -33 -46 -98 -25 -111 10 -7
14 -33 14 -92 l0 -83 80 0 79 0 23 40 c29 52 29 53 -9 69 l-32 14 52 18 c29
10 51 23 49 29 -2 5 -27 22 -55 36 -29 14 -55 28 -58 31 -3 3 13 16 35 29 l41
23 -32 33 c-38 39 -40 39 -94 13z"/>
<path d="M3250 3518 c-78 -22 -140 -100 -140 -175 1 -180 235 -255 344 -110
24 33 33 130 17 180 -15 45 -68 93 -118 106 -44 13 -56 13 -103 -1z"/>
<path d="M2564 3501 c-99 -45 -131 -170 -67 -267 29 -45 101 -79 168 -79 106
0 173 63 182 173 9 115 -65 192 -187 192 -32 0 -72 -8 -96 -19z"/>
<path d="M3895 3511 c-83 -21 -115 -65 -115 -162 0 -76 24 -124 75 -148 46
-23 548 -21 590 1 63 34 96 87 97 158 0 63 -25 107 -77 134 -37 20 -58 21
-290 23 -137 1 -263 -2 -280 -6z"/>
<path d="M2601 2930 c-39 -9 -77 -35 -105 -73 -32 -43 -34 -150 -4 -201 43
-75 163 -109 251 -72 131 54 143 262 20 324 -46 24 -116 33 -162 22z"/>
<path d="M3248 2930 c-110 -33 -168 -150 -124 -253 56 -136 277 -145 340 -14
20 42 21 126 2 170 -32 78 -133 123 -218 97z"/>
<path d="M3861 2908 c-110 -57 -110 -218 -1 -282 32 -19 54 -21 273 -24 263
-4 310 3 360 56 74 77 59 208 -28 252 -24 12 -84 16 -295 18 -260 3 -266 2
-309 -20z"/>
<path d="M2575 2321 c-98 -45 -133 -148 -84 -249 56 -114 227 -137 313 -41 38
42 51 87 43 155 -13 118 -155 189 -272 135z"/>
<path d="M3225 2323 c-104 -54 -143 -159 -95 -253 63 -124 260 -133 327 -14
25 43 31 123 12 171 -14 38 -57 83 -96 99 -43 18 -111 17 -148 -3z"/>
<path d="M3989 2331 c-86 -5 -123 -11 -143 -25 -54 -35 -56 -52 -56 -458 0
-417 1 -422 70 -463 33 -19 52 -20 300 -20 249 0 267 1 300 20 19 12 43 36 55
55 19 33 20 54 23 402 5 506 16 484 -270 492 -89 2 -215 1 -279 -3z m254 -213
c15 -18 17 -46 17 -257 0 -281 0 -281 -86 -281 -41 0 -59 5 -74 20 -19 19 -20
33 -20 263 0 249 3 266 40 280 29 11 105 -5 123 -25z"/>
<path d="M2586 1735 c-112 -40 -151 -173 -81 -275 88 -127 263 -113 326 25 73
160 -74 311 -245 250z"/>
<path d="M3240 1739 c-89 -26 -135 -95 -128 -190 7 -102 85 -174 189 -174 106
0 179 77 179 190 0 59 -9 85 -44 123 -43 48 -129 70 -196 51z"/>
</g>
</svg>
